<svg width="24" height="24" viewBox="0 0 24 24" fill="none" xmlns="http://www.w3.org/2000/svg">
<path d="M12.8159 13.5595C12.5415 13.8342 12.0963 13.8342 11.8217 13.5595L8.62649 10.3643C8.49465 10.2325 8.42049 10.0536 8.42049 9.86719C8.42049 9.6806 8.49465 9.50189 8.62649 9.36987L9.19448 8.80206L7.52621 7.13379L6.15951 8.50049C5.69955 8.96045 5.69973 9.7088 6.15951 10.1688L12.0172 16.0269C12.2386 16.2482 12.5349 16.37 12.8515 16.37C13.1681 16.37 13.4643 16.248 13.6857 16.0267L15.0524 14.6602L13.3841 12.9917L12.8159 13.5595Z" fill="#BB6FDE"/>
<path d="M22.9915 8.47083C22.9915 6.21661 22.1082 4.09186 20.5038 2.48767C18.8996 0.883484 16.7748 0 14.5208 0H9.50171C9.50171 0 9.50171 0 9.50153 0C7.24768 0 5.12292 0.883484 3.51892 2.48749C1.91473 4.09167 1.03125 6.21661 1.03125 8.47064V12.4158C1.03125 14.1614 1.56372 15.8406 2.57117 17.272C3.45996 18.5347 4.65527 19.5209 6.04889 20.1464V22.4125C6.04889 23.5842 6.70496 23.9998 7.26672 24C7.66809 24 8.06964 23.8019 8.46039 23.4113L10.9849 20.8865H14.521C16.775 20.8865 18.8998 20.003 20.504 18.3988C22.1082 16.7946 22.9916 14.6699 22.9916 12.4158L22.9915 8.47083ZM16.5439 15.1573L14.6799 17.0211C14.1929 17.5082 13.5436 17.7761 12.8514 17.7761C12.1593 17.7761 11.51 17.508 11.0229 17.0211L5.16504 11.163C4.15704 10.1547 4.15704 8.51422 5.16504 7.50604L7.02905 5.64221C7.16089 5.51019 7.3396 5.43622 7.52618 5.43622C7.71259 5.43622 7.89148 5.51019 8.02332 5.64221L10.686 8.30493C10.8179 8.43677 10.8918 8.61566 10.8918 8.80206C10.8918 8.98846 10.8179 9.16736 10.6859 9.29919L10.118 9.867L12.319 12.0679L12.887 11.4999C13.1616 11.2255 13.6068 11.2255 13.8812 11.5001L16.5439 14.1628C16.676 14.2947 16.7499 14.4736 16.7499 14.66C16.7499 14.8466 16.676 15.0255 16.5439 15.1573ZM11.4789 6.82599C11.4789 6.43781 11.7936 6.12286 12.182 6.12286C14.6182 6.12286 16.6003 8.1048 16.6003 10.5408C16.6003 10.9292 16.2856 11.244 15.8972 11.244C15.509 11.244 15.1941 10.9292 15.1941 10.5408C15.1941 8.88025 13.843 7.52911 12.182 7.52911C11.7936 7.52911 11.4789 7.21436 11.4789 6.82599ZM18.9095 11.2443C18.5211 11.2443 18.2064 10.9294 18.2064 10.5412C18.2065 8.93188 17.5798 7.41907 16.442 6.28107C15.304 5.14325 13.7911 4.51648 12.1818 4.51648C11.7936 4.51648 11.4787 4.20172 11.4787 3.81335C11.4787 3.42517 11.7936 3.11023 12.1818 3.11023C14.1667 3.11023 16.0327 3.8833 17.4362 5.2868C18.8399 6.69031 19.6128 8.55634 19.6126 10.5412C19.6126 10.9294 19.2979 11.2443 18.9095 11.2443Z" fill="#BB6FDE"/>
</svg>
